<?xml version="1.0" standalone="no"?><!DOCTYPE svg PUBLIC "-//W3C//DTD SVG 1.1//EN" "http://www.w3.org/Graphics/SVG/1.1/DTD/svg11.dtd"><svg t="1648884711883" class="icon" viewBox="0 0 1024 1024" version="1.1" xmlns="http://www.w3.org/2000/svg" p-id="678" xmlns:xlink="http://www.w3.org/1999/xlink" width="200" height="200"><defs><style type="text/css"></style></defs><path d="M512 17.066667C238.933333 17.066667 17.066667 238.933333 17.066667 512S238.933333 1006.933333 512 1006.933333 1006.933333 785.066667 1006.933333 512 785.066667 17.066667 512 17.066667zM259.413333 259.413333c139.946667-139.946667 368.64-139.946667 505.173334 0 6.826667 6.826667 6.826667 17.066667 0 23.893334-3.413333 3.413333-6.826667 3.413333-13.653334 3.413333s-10.24 0-13.653333-3.413333C614.4 157.013333 409.6 157.013333 283.306667 283.306667c-6.826667 6.826667-17.066667 6.826667-23.893334 0s-6.826667-17.066667 0-23.893334zM648.533333 494.933333c10.24 0 17.066667 6.826667 17.066667 17.066667s-6.826667 17.066667-17.066667 17.066667h-85.333333v102.4H682.666667c10.24 0 17.066667 6.826667 17.066666 17.066666s-6.826667 17.066667-17.066666 17.066667h-136.533334c-10.24 0-17.066667-6.826667-17.066666-17.066667v-273.066666c0-10.24 6.826667-17.066667 17.066666-17.066667h136.533334c10.24 0 17.066667 6.826667 17.066666 17.066667s-6.826667 17.066667-17.066666 17.066666h-119.466667v102.4H648.533333z m-157.013333 143.36c6.826667 6.826667 6.826667 17.066667 0 23.893334-3.413333 3.413333-6.826667 3.413333-10.24 3.413333-3.413333 0-10.24-3.413333-13.653333-6.826667l-105.813334-122.88V648.533333c0 10.24-6.826667 17.066667-17.066666 17.066667s-20.48-6.826667-20.48-17.066667v-273.066666c0-10.24 6.826667-17.066667 17.066666-17.066667h68.266667c44.373333 0 85.333333 40.96 85.333333 85.333333 0 51.2-27.306667 85.333333-68.266666 85.333334h-30.72l95.573333 109.226666zM238.933333 529.066667H153.6V648.533333c0 10.24-6.826667 17.066667-17.066667 17.066667s-17.066667-6.826667-17.066666-17.066667v-273.066666c0-10.24 6.826667-17.066667 17.066666-17.066667h136.533334c10.24 0 17.066667 6.826667 17.066666 17.066667s-6.826667 17.066667-17.066666 17.066666H153.6v102.4H238.933333c10.24 0 17.066667 6.826667 17.066667 17.066667s-6.826667 17.066667-17.066667 17.066667z m525.653334 235.52c-68.266667 68.266667-160.426667 105.813333-252.586667 105.813333s-184.32-34.133333-252.586667-105.813333c-6.826667-6.826667-6.826667-17.066667 0-23.893334s17.066667-6.826667 23.893334 0c126.293333 126.293333 331.093333 126.293333 457.386666 0 6.826667-6.826667 17.066667-6.826667 23.893334 0s6.826667 17.066667 0 23.893334z m122.88-98.986667h-136.533334c-10.24 0-17.066667-6.826667-17.066666-17.066667v-273.066666c0-10.24 6.826667-17.066667 17.066666-17.066667h136.533334c10.24 0 17.066667 6.826667 17.066666 17.066667s-6.826667 17.066667-17.066666 17.066666h-119.466667v102.4H853.333333c10.24 0 17.066667 6.826667 17.066667 17.066667s-6.826667 17.066667-17.066667 17.066667h-85.333333v102.4H887.466667c10.24 0 17.066667 6.826667 17.066666 17.066666s-6.826667 17.066667-17.066666 17.066667z" p-id="679"></path><path d="M460.8 443.733333c0-27.306667-23.893333-51.2-51.2-51.2h-51.2v102.4h68.266667c34.133333 0 34.133333-40.96 34.133333-51.2z" p-id="680"></path></svg>
