<svg t="1636029975197" class="icon" viewBox="0 0 1024 1024" version="1.1" xmlns="http://www.w3.org/2000/svg" p-id="16296" width="200" height="200"><path d="M1013.103308 950.21984l-157.555433-156.391804a43.287017 43.287017 0 0 0-10.333029-6.56287 234.494614 234.494614 0 0 0-1.396356-269.031137 235.332428 235.332428 0 0 0-253.531593-91.135462 31.464541 31.464541 0 0 0-14.103189 52.596053l126.509798 126.323617-97.372516 99.048142-126.044346-125.81162a31.557632 31.557632 0 0 0-52.642598 14.056644 234.494614 234.494614 0 0 0 40.727032 202.378441 235.285882 235.285882 0 0 0 185.017089 92.066365 235.425518 235.425518 0 0 0 133.584665-41.797571 43.193927 43.193927 0 0 0 6.56287 9.867578l157.555433 157.322706c17.687168 15.266819 44.264466 14.335915 60.83455-2.234168a44.543737 44.543737 0 0 0 2.187623-60.694914z m-360.725141-109.427717a188.275251 188.275251 0 0 1-140.706078-61.951634 187.623619 187.623619 0 0 1-47.429538-146.058774l141.078439 140.845714 163.699397-167.609192-138.239183-140.892258a188.321796 188.321796 0 0 1 153.273276 53.526956 187.577073 187.577073 0 0 1 42.681929 205.264242 188.135616 188.135616 0 0 1-174.358242 116.8284zM666.993353 139.635539H170.82174C153.600023 139.635539 139.636469 149.875478 139.636469 162.908128s13.963554 23.27259 31.185271 23.27259h496.171613c17.221716 0 31.18527-10.239939 31.18527-23.27259s-13.963554-23.27259-31.18527-23.272589zM698.178623 302.543667c0-13.03265-13.963554-23.27259-31.18527-23.27259H170.82174C153.600023 279.271077 139.636469 289.511017 139.636469 302.543667s13.963554 23.27259 31.185271 23.27259h496.171613c17.221716 0 31.18527-10.239939 31.18527-23.27259zM172.683547 418.906616c-18.15262 0-33.047077 10.239939-33.047078 23.272589s14.894457 23.27259 33.047078 23.27259h166.631743c18.15262 0 33.047077-10.239939 33.047077-23.27259S357.46791 418.906616 339.31529 418.906616H172.683547z" p-id="16297"></path><path d="M462.660015 977.44877H154.996379A109.381172 109.381172 0 0 1 46.54611 867.602146V156.391803A109.381172 109.381172 0 0 1 154.996379 46.54518h527.822335A109.381172 109.381172 0 0 1 791.268983 156.391803v222.485958a23.27259 23.27259 0 1 0 46.545179 0V156.391803A155.926351 155.926351 0 0 0 682.818714 0H154.996379A155.926351 155.926351 0 0 0 0.000931 156.391803v711.210343A155.926351 155.926351 0 0 0 154.996379 1023.993949h307.663636a23.27259 23.27259 0 0 0 0-46.545179z" p-id="16298"></path></svg>
